<svg width="90" height="90" viewBox="0 0 90 90" fill="none" xmlns="http://www.w3.org/2000/svg">
<g clip-path="url(#clip0_214_882)">
<path fill-rule="evenodd" clip-rule="evenodd" d="M13.5 0H76.5C83.9558 0 90 6.04416 90 13.5V76.5C90 83.9558 83.9558 90 76.5 90H13.5C6.04416 90 0 83.9558 0 76.5V13.5C0 6.04416 6.04416 0 13.5 0ZM38.8477 54.1407C29.5312 53.2618 23.9062 50.0977 20.918 44.8243C18.8086 40.7813 18.2813 37.7931 18.2813 33.047C18.457 27.0704 20.2148 24.7852 22.8516 21.6212C20.918 14.7657 23.5547 10.0196 23.5547 10.0196C23.5547 10.0196 27.5977 9.14071 35.332 14.5899C39.5508 12.8321 50.8008 12.6563 56.0742 14.2384C59.2383 12.129 65.2148 9.14071 67.6758 10.0196C68.3789 10.8985 69.7852 13.8868 68.5547 20.5665C68.7261 20.875 69.0245 21.237 69.3939 21.6851C70.9186 23.5347 73.6523 26.8509 73.6523 33.9259C73.6523 37.0899 73.3008 41.3087 71.543 44.8243C68.7305 50.9766 62.9297 53.2618 53.6133 54.1407C56.6016 56.0743 57.4805 58.3595 57.4805 64.6876V73.3009C57.4805 74.8578 58.9579 75.9222 59.9989 76.6721C60.6034 77.1076 61.0607 77.4371 60.9961 77.6954C60.8203 78.3985 58.0078 78.3985 56.6016 77.8712C52.9102 76.6407 53.2617 73.4766 53.2617 73.4766L53.0859 65.0391C53.0859 65.0391 53.4375 60.4688 51.6797 60.4688V74.3556C51.6797 76.2302 52.5098 77.3438 53.1285 78.1739C53.4961 78.6671 53.7891 79.0601 53.7891 79.4532C53.7891 81.3868 49.9219 79.2774 48.6914 78.047C47.0775 76.2717 47.0936 72.8666 47.107 70.0082C47.1082 69.7532 47.1094 69.5026 47.1094 69.2579C46.9336 66.4454 46.9336 59.9415 46.9336 59.9415H45.7098C45.8918 60.1138 46.3909 73.861 45.1758 76.4649C43.5938 79.8048 39.0234 81.0352 39.0234 79.4532C39.0234 78.984 39.2322 78.7931 39.5258 78.5246C39.8923 78.1895 40.3909 77.7335 40.7812 76.4649C41.3086 74.7071 41.1328 60.2931 41.1328 60.2931C41.1328 60.2931 39.7266 61.172 39.7266 63.8087C39.5508 65.0391 39.5508 72.0704 39.5508 74.1798C39.5508 76.6407 35.6836 78.2227 33.9258 78.2227C33.0469 78.2227 31.8164 78.2227 31.8164 77.6954C31.8164 77.1857 32.4196 76.7665 33.1263 76.2754C34.1257 75.5808 35.332 74.7424 35.332 73.3009V65.3907C28.3008 66.4454 23.9062 65.0391 21.7969 59.5899C20.918 57.129 18.9844 55.3712 17.2266 54.3165C16.1719 53.6134 15.9961 52.7345 17.2266 52.5587C20.6328 51.92 22.4921 54.3109 24.2486 56.5697C25.3927 58.0409 26.4932 59.4561 27.9492 59.9415C30.5859 60.8204 33.9258 60.4688 35.6836 59.4141C35.8594 57.129 37.4414 55.1954 38.8477 54.1407Z" fill="#53DCFD"/>
</g>
<defs>
<clipPath id="clip0_214_882">
<rect width="90" height="90" fill="white"/>
</clipPath>
</defs>
</svg>
